PathFileType	3	(X/Y/Z)	C:\Users\koon_\Desktop\
DataRate	CameraRate	NumFrames	NumMarkers	Units	OrigDataRate	OrigDataStartFrame	OrigNumFrames
100.0	100.0	5	27	mm	100.0	1	3007	
Frame#	Time	get:LFHD			get:RFHD			get:LBHD			get:RBHD			get:C7			get:T10			get:CLAV			get:STRN			get:RBAK			get:LSHO			get:LUPA			get:LELB			get:LFRA			get:LWRA			get:LWRB			get:LFIN			get:RSHO			get:RUPA			get:RELB			get:RFRA			get:RWRA			get:RWRB			get:RFIN			get:LASI			get:RASI			get:LPSI			get:RPSI			
		X1	Y1	Z1	X2	Y2	Z2	X3	Y3	Z3	X4	Y4	Z4	X5	Y5	Z5	X6	Y6	Z6	X7	Y7	Z7	X8	Y8	Z8	X9	Y9	Z9	X10	Y10	Z10	X11	Y11	Z11	X12	Y12	Z12	X13	Y13	Z13	X14	Y14	Z14	X15	Y15	Z15	X16	Y16	Z16	X17	Y17	Z17	X18	Y18	Z18	X19	Y19	Z19	X20	Y20	Z20	X21	Y21	Z21	X22	Y22	Z22	X23	Y23	Z23	X24	Y24	Z24	X25	Y25	Z25	X26	Y26	Z26	X27	Y27	Z27	
1	0	81.676216	1570.9236	-75.600853	-77.216026	1564.5619	-92.133308	85.840538	1560.3993	-200.37396	-38.593678	1565.3247	-228.95593	16.00732	1377.7642	-242.25305	17.660351	1118.821	-283.67139	8.6475115	1295.7823	-63.415764	17.323942	1107.0092	-22.566849	-68.984955	1311.4344	-277.13647	175.65958	1359.3209	-144.94838	229.88371	1212.9718	-130.21585	254.73567	1032.0541	-152.89021	220.14471	935.84387	-78.655914	199.08859	840.14459	-65.004807	261.80676	835.21692	-95.6008	250.5885	759.021	-48.892448	-143.40773	1360.6492	-162.5426	-214.94321	1141.4115	-137.78867	-226.94603	1035.0989	-183.32608	-214.15515	971.13464	-98.650101	-192.0896	817.09113	-70.46434	-244.6338	817.01123	-124.04408	-236.11557	750.49976	-58.88567	145.57324	932.29425	-82.142822	-132.40056	924.00836	-86.181679	62.943817	959.63672	-284.97968	-45.239391	952.685	-288.15948
2	0.01	81.644188	1570.9446	-75.507393	-77.216209	1564.5382	-92.043396	85.794151	1560.4498	-200.31271	-38.596298	1565.3209	-228.86806	16.005215	1377.7582	-242.16669	17.612968	1118.8298	-283.64258	8.6439743	1295.7418	-63.181995	17.384583	1107.0159	-22.657551	-68.963821	1311.441	-277.09521	175.67938	1359.2965	-144.86075	229.90146	1212.9606	-130.15961	254.74733	1032.0275	-152.86835	220.19885	935.84357	-78.67025	199.10847	840.11603	-64.98201	261.82803	835.17938	-95.618782	250.62207	759.00714	-48.915421	-143.39172	1360.6417	-162.42035	-214.92387	1141.4033	-137.71782	-226.94217	1035.0907	-183.2356	-214.12401	971.13452	-98.539917	-192.08038	817.06793	-70.452599	-244.62541	817.01978	-124.02001	-236.11557	750.49976	-58.88567	145.59569	932.23853	-82.122734	-132.36397	924.01733	-86.074265	62.938519	959.65344	-284.88623	-45.282707	952.71826	-288.14413
3	0.02	81.657532	1570.9614	-75.448341	-77.217468	1564.536	-91.953636	85.793205	1560.4485	-200.22583	-38.656666	1565.3159	-228.70412	15.998408	1377.7235	-241.989	17.61002	1118.8177	-283.55286	7.8880954	1295.6512	-63.129307	16.628716	1106.8866	-22.438942	-68.957832	1311.485	-277.07391	175.698	1359.2997	-144.79865	229.94048	1212.9331	-130.13635	254.76884	1032.0093	-152.82617	220.23618	935.80194	-78.646072	199.18042	840.0835	-64.988312	261.86398	835.159	-95.632599	250.67958	758.98669	-48.890266	-143.37764	1360.6329	-162.35023	-214.86121	1141.3878	-137.56357	-226.90054	1035.0853	-183.16594	-214.0954	971.1062	-98.495323	-192.07278	817.05396	-70.431419	-244.58179	816.97186	-124.00474	-236.09282	750.45013	-58.862728	145.62106	932.24652	-82.088638	-132.33855	923.96368	-86.029587	62.903114	959.67419	-284.89511	-46.829781	952.44312	-286.23087
4	0.03	81.646858	1570.9507	-75.359528	-77.22213	1564.5032	-91.847206	85.745148	1560.4575	-200.16493	-38.705631	1565.3291	-228.64005	16.053736	1377.7655	-242.04811	17.607073	1118.8059	-283.46332	7.9205875	1295.6296	-63.091644	16.65616	1106.896	-22.500097	-68.979965	1311.483	-277.01608	175.75845	1359.3345	-144.79756	229.94838	1212.9248	-130.10434	254.80286	1031.996	-152.81027	220.3036	935.77527	-78.63147	199.22992	840.0752	-64.965553	261.93356	835.12299	-95.614166	250.76917	758.97333	-48.890785	-143.36096	1360.6343	-162.2594	-214.84203	1141.3796	-137.49297	-226.89342	1035.0963	-183.08002	-214.04567	971.09491	-98.446976	-192.03473	817.02356	-70.371429	-244.5878	816.97461	-123.91222	-236.04254	750.42206	-58.812443	145.62929	932.22437	-82.013527	-132.33049	923.96899	-85.927475	62.937954	959.69574	-284.80084	-46.827694	952.44757	-286.14154
5	0.04	81.649284	1570.9722	-75.297798	-77.467651	1564.4563	-91.03595	85.648308	1560.4806	-200.09306	-38.773239	1565.3281	-228.50963	16.025694	1377.7593	-241.95967	17.607386	1118.7992	-283.42026	7.9536896	1295.5812	-62.946766	16.737041	1106.8368	-22.366751	-68.985786	1311.4529	-276.86884	175.77284	1359.3176	-144.72089	229.95705	1212.9058	-130.05602	254.86281	1031.9882	-152.80923	220.35028	935.74078	-78.625465	199.30067	840.01123	-64.968658	261.97913	835.1015	-95.653641	250.87338	758.93622	-48.919411	-143.35283	1360.6169	-162.1424	-214.8246	1141.3605	-137.37891	-226.86328	1035.0739	-182.94273	-214.00146	971.06653	-98.293159	-191.96855	816.98315	-70.29406	-244.50655	816.93927	-123.79906	-235.97844	750.38055	-58.740997	145.66147	932.22272	-81.93354	-132.30354	923.95721	-85.814888	62.932289	959.70587	-284.75333	-46.758015	952.50769	-286.13092
